<svg width="23" height="8" viewBox="0 0 23 8" fill="none" xmlns="http://www.w3.org/2000/svg">
<path fill-rule="evenodd" clip-rule="evenodd" d="M5.75 0C6.18571 0 6.60358 0.165561 6.91168 0.460261C7.21977 0.754961 7.39286 1.15466 7.39286 1.57143V3.14286H15.6071V1.57143C15.6071 1.15466 15.7802 0.754961 16.0883 0.460261C16.3964 0.165561 16.8143 0 17.25 0C17.6857 0 18.1036 0.165561 18.4117 0.460261C18.7198 0.754961 18.8929 1.15466 18.8929 1.57143V3.14286H20.5357C21.1893 3.14286 21.8161 3.3912 22.2782 3.83325C22.7404 4.2753 23 4.87485 23 5.5V7.07143H0V5.5C0 4.87485 0.259629 4.2753 0.721773 3.83325C1.18392 3.3912 1.81072 3.14286 2.46429 3.14286H4.10714V1.57143C4.10714 1.15466 4.28023 0.754961 4.58832 0.460261C4.89642 0.165561 5.31429 0 5.75 0Z" fill="#38A389"/>
</svg>
