<svg width="12" height="12" viewBox="0 0 12 12" fill="none" xmlns="http://www.w3.org/2000/svg">
<path d="M6.47359 5.80807V3.31574C6.47359 3.18153 6.42817 3.06901 6.33733 2.97817C6.24649 2.88743 6.13396 2.84206 5.99975 2.84206C5.86544 2.84206 5.75297 2.88743 5.66234 2.97817C5.5716 3.06901 5.52623 3.18153 5.52623 3.31574V5.95381C5.52623 6.02812 5.54002 6.10012 5.5676 6.1698C5.59508 6.23949 5.63839 6.30391 5.69755 6.36306L7.86067 8.52619C7.94804 8.61366 8.05793 8.6584 8.19035 8.6604C8.32277 8.6624 8.43472 8.61766 8.52619 8.52619C8.61766 8.43472 8.6634 8.32377 8.6634 8.19335C8.6634 8.06304 8.61766 7.95215 8.52619 7.86067L6.47359 5.80807ZM6.00102 11.9998C5.17113 11.9998 4.39109 11.8424 3.66089 11.5274C2.93069 11.2125 2.29554 10.7851 1.75545 10.2452C1.21535 9.70528 0.787725 9.07039 0.472572 8.34051C0.157524 7.61062 0 6.83079 0 6.00102C0 5.17113 0.157471 4.39109 0.472414 3.66089C0.787357 2.93069 1.21477 2.29554 1.75466 1.75545C2.29455 1.21535 2.92943 0.787725 3.65931 0.472572C4.3892 0.157524 5.16903 0 5.99881 0C6.82869 0 7.60873 0.157471 8.33893 0.472414C9.06913 0.787357 9.70428 1.21477 10.2444 1.75466C10.7845 2.29455 11.2121 2.92943 11.5273 3.65931C11.8423 4.3892 11.9998 5.16903 11.9998 5.99881C11.9998 6.82869 11.8424 7.60873 11.5274 8.33893C11.2125 9.06913 10.7851 9.70428 10.2452 10.2444C9.70528 10.7845 9.07039 11.2121 8.34051 11.5273C7.61062 11.8423 6.83079 11.9998 6.00102 11.9998ZM5.99991 11.0525C7.39989 11.0525 8.59198 10.5604 9.57617 9.57617C10.5604 8.59198 11.0525 7.39989 11.0525 5.99991C11.0525 4.59993 10.5604 3.40784 9.57617 2.42365C8.59198 1.43945 7.39989 0.947354 5.99991 0.947354C4.59993 0.947354 3.40784 1.43945 2.42365 2.42365C1.43945 3.40784 0.947354 4.59993 0.947354 5.99991C0.947354 7.39989 1.43945 8.59198 2.42365 9.57617C3.40784 10.5604 4.59993 11.0525 5.99991 11.0525Z" fill="#5F6368"/>
</svg>
