<svg width="14" height="14" viewBox="0 0 14 14" fill="none" xmlns="http://www.w3.org/2000/svg">
<path d="M11.5768 14C11.3379 14 11.1375 13.9191 10.9758 13.7573C10.8141 13.5957 10.7333 13.3954 10.7333 13.1563V9.33333C10.7333 9.0944 10.8141 8.89404 10.9758 8.73227C11.1375 8.57064 11.3379 8.48983 11.5768 8.48983H13.1563C13.3954 8.48983 13.5957 8.57064 13.7573 8.73227C13.9191 8.89404 14 9.0944 14 9.33333V13.1563C14 13.3954 13.9191 13.5957 13.7573 13.7573C13.5957 13.9191 13.3954 14 13.1563 14H11.5768ZM6.21017 14C5.97123 14 5.77088 13.9191 5.6091 13.7573C5.44748 13.5957 5.36667 13.3954 5.36667 13.1563V0.843733C5.36667 0.604644 5.44748 0.404289 5.6091 0.242667C5.77088 0.0808895 5.97123 0 6.21017 0H7.78983C8.02877 0 8.22912 0.0808895 8.3909 0.242667C8.55252 0.404289 8.63333 0.604644 8.63333 0.843733V13.1563C8.63333 13.3954 8.55252 13.5957 8.3909 13.7573C8.22912 13.9191 8.02877 14 7.78983 14H6.21017ZM0.843733 14C0.604645 14 0.404289 13.9191 0.242667 13.7573C0.0808887 13.5957 0 13.3954 0 13.1563V5.42477C0 5.18148 0.0808887 4.97933 0.242667 4.81833C0.404289 4.65749 0.604645 4.57707 0.843733 4.57707H2.42317C2.6621 4.57707 2.86246 4.65788 3.02423 4.8195C3.18586 4.98112 3.26667 5.18148 3.26667 5.42057V13.1521C3.26667 13.3955 3.18586 13.5977 3.02423 13.7585C2.86246 13.9195 2.6621 14 2.42317 14H0.843733Z" fill="#5F6368"/>
</svg>
