<svg width="19" height="10" viewBox="0 0 19 10" fill="none" xmlns="http://www.w3.org/2000/svg">
<path d="M15.3231 9.9359L13.6032 9.86414L13.7597 6.11153L5.16 5.75274L5.00343 9.50535L3.28349 9.43359L3.34872 7.87L1.62878 7.79824L1.72011 5.60922L0.000163414 5.53746L0.0806208 3.60904L1.80057 3.6808L1.8919 1.49177L3.61184 1.56353L3.67708 -5.30183e-05L5.39702 0.071706L5.24046 3.82431L13.8402 4.18311L13.9968 0.430503L15.7167 0.502262L15.6515 2.06585L17.3714 2.13761L17.2801 4.32663L19 4.39839L18.9196 6.32681L17.1996 6.25505L17.1083 8.44407L15.3883 8.37232L15.3231 9.9359Z" fill="#38A389"/>
</svg>
