<svg width="10" height="10" viewBox="0 0 10 10" fill="none" xmlns="http://www.w3.org/2000/svg">
<path d="M6.53909 3.19432L4.94193 1.59716L6.53909 0L8.13625 1.59716L6.53909 3.19432ZM8.85382 4.59473L7.7196 3.44894L8.85382 2.31472L9.99961 3.44894L8.85382 4.59473ZM4.8262 9.98803C4.16264 9.98803 3.53767 9.86072 2.95127 9.6061C2.36488 9.35148 1.85371 9.0062 1.41777 8.57026C0.981829 8.13432 0.636549 7.62316 0.381929 7.03676C0.12731 6.45036 0 5.82539 0 5.16183C0 3.96589 0.385787 2.91848 1.15736 2.0196C1.92894 1.12071 2.90884 0.578681 4.09706 0.393503C3.98904 1.16508 4.03341 1.92508 4.23016 2.67351C4.42691 3.42193 4.80305 4.07391 5.35858 4.62945C5.91412 5.18498 6.5661 5.56112 7.31453 5.75787C8.06295 5.95463 8.82296 5.98742 9.59453 5.85625C9.41707 7.05219 8.87696 8.03981 7.97422 8.8191C7.07148 9.59839 6.02214 9.98803 4.8262 9.98803Z" fill="#38A389"/>
</svg>
