<svg width="28" height="24" viewBox="0 0 28 24" fill="none" xmlns="http://www.w3.org/2000/svg">
<path d="M13.7548 24C13.4444 24 13.1326 23.9443 12.8196 23.833C12.5065 23.7214 12.231 23.5467 11.9931 23.309L9.91117 21.4166C7.34153 19.0735 5.04725 16.7718 3.02835 14.5113C1.00945 12.2509 0 9.82928 0 7.2466C0 5.18977 0.693499 3.46774 2.0805 2.0805C3.46774 0.693499 5.18977 0 7.24659 0C8.41523 0 9.56961 0.269453 10.7097 0.808358C11.8496 1.34726 12.8692 2.22241 13.7685 3.4338C14.6678 2.22241 15.6874 1.34726 16.8273 0.808358C17.9674 0.269453 19.1218 0 20.2905 0C22.3473 0 24.0693 0.693499 25.4566 2.0805C26.8436 3.46774 27.5371 5.18977 27.5371 7.2466C27.5371 9.8573 26.5105 12.3058 24.4573 14.5921C22.4041 16.8784 20.1149 19.1606 17.5897 21.4387L15.5298 23.309C15.2921 23.5467 15.0145 23.7214 14.6968 23.833C14.3789 23.9443 14.0649 24 13.7548 24ZM12.7261 5.63568C11.942 4.44095 11.1165 3.56532 10.2496 3.00879C9.38289 2.45225 8.3819 2.17398 7.24659 2.17398C5.79728 2.17398 4.58951 2.65709 3.6233 3.6233C2.65708 4.58951 2.17398 5.79728 2.17398 7.2466C2.17398 8.40967 2.54887 9.62577 3.29865 10.8949C4.04843 12.164 4.98952 13.4256 6.12192 14.6798C7.25432 15.9342 8.48117 17.1596 9.80247 18.356C11.1235 19.5526 12.348 20.6648 13.4758 21.6923C13.5593 21.7667 13.6569 21.8039 13.7685 21.8039C13.8801 21.8039 13.9777 21.7667 14.0613 21.6923C15.1891 20.6648 16.4135 19.5526 17.7346 18.356C19.0559 17.1596 20.2827 15.9342 21.4151 14.6798C22.5475 13.4256 23.4886 12.164 24.2384 10.8949C24.9882 9.62577 25.3631 8.40967 25.3631 7.2466C25.3631 5.79728 24.88 4.58951 23.9138 3.6233C22.9475 2.65709 21.7398 2.17398 20.2905 2.17398C19.1552 2.17398 18.1542 2.45225 17.2875 3.00879C16.4205 3.56532 15.595 4.44095 14.811 5.63568C14.6882 5.82143 14.534 5.96081 14.3483 6.05381C14.1625 6.14656 13.9693 6.19294 13.7685 6.19294C13.5678 6.19294 13.3746 6.14656 13.1888 6.05381C13.003 5.96081 12.8488 5.82143 12.7261 5.63568Z" fill="#5F6368"/>
</svg>
