<svg width="26" height="23" viewBox="0 0 26 23" fill="none" xmlns="http://www.w3.org/2000/svg">
<path d="M5.99035 14.9759H19.3022C19.5856 14.9759 19.8227 14.8802 20.0138 14.689C20.205 14.498 20.3006 14.2608 20.3006 13.9775C20.3006 13.6942 20.205 13.457 20.0138 13.266C19.8227 13.0747 19.5856 12.9791 19.3022 12.9791H5.99035C5.70703 12.9791 5.46985 13.0747 5.27883 13.266C5.08758 13.457 4.99196 13.6942 4.99196 13.9775C4.99196 14.2608 5.08758 14.498 5.27883 14.689C5.46985 14.8802 5.70703 14.9759 5.99035 14.9759ZM5.99035 10.9823H19.3022C19.5856 10.9823 19.8227 10.8867 20.0138 10.6954C20.205 10.5044 20.3006 10.2672 20.3006 9.98391C20.3006 9.70059 20.205 9.46342 20.0138 9.27239C19.8227 9.08114 19.5856 8.98552 19.3022 8.98552H5.99035C5.70703 8.98552 5.46985 9.08114 5.27883 9.27239C5.08758 9.46342 4.99196 9.70059 4.99196 9.98391C4.99196 10.2672 5.08758 10.5044 5.27883 10.6954C5.46985 10.8867 5.70703 10.9823 5.99035 10.9823ZM5.99035 6.98874H19.3022C19.5856 6.98874 19.8227 6.89312 20.0138 6.70187C20.205 6.51084 20.3006 6.27367 20.3006 5.99035C20.3006 5.70703 20.205 5.46985 20.0138 5.27883C19.8227 5.08758 19.5856 4.99196 19.3022 4.99196H5.99035C5.70703 4.99196 5.46985 5.08758 5.27883 5.27883C5.08758 5.46985 4.99196 5.70703 4.99196 5.99035C4.99196 6.27367 5.08758 6.51084 5.27883 6.70187C5.46985 6.89312 5.70703 6.98874 5.99035 6.98874ZM2.40646 19.9678C1.73398 19.9678 1.16479 19.7349 0.698874 19.2689C0.232958 18.803 0 18.2338 0 17.5614V2.40646C0 1.73398 0.232958 1.16479 0.698874 0.698874C1.16479 0.232958 1.73398 0 2.40646 0H22.8861C23.5586 0 24.1278 0.232958 24.5937 0.698874C25.0596 1.16479 25.2926 1.73398 25.2926 2.40646V21.7699C25.2926 22.3093 25.0464 22.6827 24.5541 22.8901C24.0616 23.0973 23.6259 23.0115 23.2472 22.6325L20.5822 19.9678H2.40646ZM21.4321 17.971L23.2958 19.8144V2.40646C23.2958 2.30395 23.2531 2.2101 23.1677 2.12491C23.0825 2.03949 22.9886 1.99678 22.8861 1.99678H2.40646C2.30395 1.99678 2.21011 2.03949 2.12491 2.12491C2.03949 2.2101 1.99678 2.30395 1.99678 2.40646V17.5614C1.99678 17.6639 2.03949 17.7577 2.12491 17.8429C2.21011 17.9283 2.30395 17.971 2.40646 17.971H21.4321Z" fill="#5F6368"/>
</svg>
