<svg width="21" height="14" viewBox="0 0 21 14" fill="none" xmlns="http://www.w3.org/2000/svg">
<path d="M0.860417 14C0.616632 14 0.412331 13.9156 0.247514 13.7468C0.0825046 13.5783 0 13.3692 0 13.1198C0 12.8705 0.0825046 12.6632 0.247514 12.4979C0.412331 12.3326 0.616632 12.25 0.860417 12.25H19.7896C20.0334 12.25 20.2378 12.3344 20.4028 12.5032C20.5676 12.6718 20.65 12.8808 20.65 13.1303C20.65 13.3795 20.5676 13.5868 20.4028 13.7521C20.2378 13.9174 20.0334 14 19.7896 14H0.860417ZM0.860417 7.87501C0.616632 7.87501 0.412331 7.79062 0.247514 7.62184C0.0825046 7.45326 0 7.24423 0 6.99476C0 6.74548 0.0825046 6.5382 0.247514 6.37292C0.412331 6.20764 0.616632 6.12501 0.860417 6.12501H19.7896C20.0334 6.12501 20.2378 6.20939 20.4028 6.37817C20.5676 6.54676 20.65 6.75578 20.65 7.00526C20.65 7.25453 20.5676 7.46181 20.4028 7.62709C20.2378 7.79237 20.0334 7.87501 19.7896 7.87501H0.860417ZM0.860417 1.75C0.616632 1.75 0.412331 1.66561 0.247514 1.49683C0.0825046 1.32825 0 1.11922 0 0.869751C0 0.620473 0.0825046 0.413195 0.247514 0.247917C0.412331 0.082639 0.616632 0 0.860417 0H19.7896C20.0334 0 20.2378 0.0843887 20.4028 0.253167C20.5676 0.42175 20.65 0.630778 20.65 0.880251C20.65 1.12953 20.5676 1.33681 20.4028 1.50208C20.2378 1.66736 20.0334 1.75 19.7896 1.75H0.860417Z" fill="white"/>
</svg>
