<svg width="37" height="16" viewBox="0 0 37 16" fill="none" xmlns="http://www.w3.org/2000/svg">
<path d="M0 16V14.1387C0 13.123 0.558887 12.2887 1.67666 11.6358C2.79471 10.9832 4.25192 10.6569 6.04829 10.6569C6.3451 10.6569 6.64405 10.6656 6.94514 10.6832C7.24624 10.7008 7.54947 10.735 7.85486 10.7859C7.54143 11.2617 7.30884 11.7554 7.15709 12.2671C7.0056 12.779 6.92986 13.304 6.92986 13.8421V16H0ZM9.65217 16V13.9009C9.65217 13.1862 9.86358 12.5329 10.2864 11.9411C10.7092 11.3491 11.3186 10.8329 12.1147 10.3928C12.9107 9.95234 13.8513 9.62209 14.9363 9.402C16.0211 9.18166 17.207 9.07149 18.494 9.07149C19.8056 9.07149 21.0038 9.18166 22.0886 9.402C23.1734 9.62209 24.1138 9.95234 24.9098 10.3928C25.7062 10.8329 26.3116 11.3491 26.7261 11.9411C27.1406 12.5329 27.3478 13.1862 27.3478 13.9009V16H9.65217ZM30.0701 16V13.8467C30.0701 13.2725 29.9986 12.7313 29.8554 12.2232C29.7119 11.7153 29.4969 11.2362 29.2103 10.7859C29.5259 10.735 29.8275 10.7008 30.1152 10.6832C30.4029 10.6656 30.6869 10.6569 30.9674 10.6569C32.7638 10.6569 34.2183 10.9794 35.331 11.6244C36.4437 12.2691 37 13.1072 37 14.1387V16H30.0701ZM12.1891 13.7101H24.8358V13.5486C24.671 12.9322 23.9862 12.4135 22.7815 11.9927C21.5772 11.5718 20.15 11.3614 18.5 11.3614C16.85 11.3614 15.4228 11.5718 14.2185 11.9927C13.0138 12.4135 12.3374 12.9322 12.1891 13.5486V13.7101ZM6.04387 9.17415C5.28564 9.17415 4.63787 8.91832 4.10057 8.40665C3.56326 7.89498 3.29461 7.27989 3.29461 6.56136C3.29461 5.83343 3.56433 5.21846 4.10378 4.71646C4.64296 4.21446 5.29113 3.96346 6.04829 3.96346C6.81537 3.96346 7.46596 4.21446 8.00004 4.71646C8.5344 5.21846 8.80158 5.83495 8.80158 6.56594C8.80158 7.27531 8.53721 7.88735 8.00849 8.40207C7.48003 8.91679 6.82516 9.17415 6.04387 9.17415ZM30.9674 9.17415C30.2167 9.17415 29.5701 8.91679 29.0277 8.40207C28.4853 7.88735 28.2141 7.27531 28.2141 6.56594C28.2141 5.83495 28.4853 5.21846 29.0277 4.71646C29.5701 4.21446 30.2176 3.96346 30.9702 3.96346C31.7459 3.96346 32.3982 4.21446 32.9272 4.71646C33.4562 5.21846 33.7207 5.83343 33.7207 6.56136C33.7207 7.27989 33.4568 7.89498 32.9292 8.40665C32.4015 8.91832 31.7476 9.17415 30.9674 9.17415ZM18.5056 7.92653C17.3468 7.92653 16.3602 7.54119 15.5456 6.77051C14.7311 6.00008 14.3238 5.06439 14.3238 3.96346C14.3238 2.84038 14.7298 1.8991 15.5416 1.13961C16.3537 0.379871 17.3399 0 18.5 0C19.6832 0 20.6751 0.379363 21.4757 1.13809C22.276 1.89656 22.6762 2.83657 22.6762 3.95811C22.6762 5.05753 22.2766 5.99385 21.4773 6.76707C20.6778 7.54005 19.6872 7.92653 18.5056 7.92653ZM18.5076 5.63662C18.9996 5.63662 19.4152 5.47327 19.7544 5.14658C20.0938 4.81963 20.2635 4.42271 20.2635 3.95582C20.2635 3.48919 20.0945 3.09482 19.7564 2.7727C19.4183 2.45084 18.9995 2.28991 18.5 2.28991C18.0134 2.28991 17.5978 2.45033 17.2533 2.77118C16.9087 3.09176 16.7365 3.48919 16.7365 3.96346C16.7365 4.42525 16.9087 4.81963 17.2533 5.14658C17.5978 5.47327 18.0159 5.63662 18.5076 5.63662Z" fill="white"/>
</svg>
