<svg width="20" height="20" viewBox="0 0 20 20" fill="none" xmlns="http://www.w3.org/2000/svg">
<path d="M18.5858 20L15.5303 16.9444C15.1094 17.2138 14.6633 17.4452 14.1919 17.6388C13.7205 17.8325 13.2323 17.9882 12.7272 18.106V16.0353C12.9629 15.9511 13.1944 15.867 13.4217 15.7828C13.649 15.6986 13.8636 15.5976 14.0656 15.4798L10.707 12.1212V17.3737L5.65655 12.3232H1.61616V6.26261H4.84847L0 1.41414L1.41414 0L20 18.5858L18.5858 20ZM18.3838 14.1414L16.9192 12.6767C17.2053 12.1549 17.42 11.6077 17.5631 11.0353C17.7062 10.4629 17.7777 9.87371 17.7777 9.26766C17.7777 7.68517 17.3148 6.27103 16.3889 5.02524C15.4629 3.77945 14.2424 2.9377 12.7272 2.49999V0.429292C14.8148 0.900671 16.5151 1.95707 17.8282 3.59848C19.1414 5.23989 19.7979 7.12961 19.7979 9.26766C19.7979 10.1599 19.6759 11.0185 19.4318 11.8434C19.1877 12.6683 18.8383 13.4343 18.3838 14.1414ZM15 10.7575L12.7272 8.48483V5.20201C13.5185 5.57238 14.1372 6.12793 14.5833 6.86867C15.0294 7.60941 15.2525 8.41749 15.2525 9.29291C15.2525 9.54543 15.2314 9.79375 15.1894 10.0379C15.1473 10.282 15.0841 10.5219 15 10.7575ZM10.707 6.46463L8.08079 3.83837L10.707 1.21212V6.46463ZM8.68685 12.4747V10.101L6.86867 8.28281H3.63636V10.303H6.51514L8.68685 12.4747Z" fill="#1C1B1F"/>
</svg>
