<svg width="17" height="13" viewBox="0 0 17 13" fill="none" xmlns="http://www.w3.org/2000/svg">
<path d="M7.40641 11.9539L0.460502 5.00796C0.307001 4.85446 0.191876 4.68177 0.115125 4.4899C0.0383752 4.29802 0 4.10614 0 3.91427C0 3.69681 0.044771 3.48894 0.134313 3.29067C0.223855 3.0924 0.358168 2.91651 0.537252 2.76301C1.58617 1.8548 2.83337 1.16725 4.27883 0.700347C5.7243 0.233449 7.13138 0 8.5001 0C9.86881 0 11.2759 0.233449 12.7214 0.700347C14.1668 1.16725 15.414 1.8548 16.4629 2.76301C16.642 2.91651 16.7763 3.0924 16.8659 3.29067C16.9554 3.48894 17.0002 3.69681 17.0002 3.91427C17.0002 4.10614 16.9618 4.29802 16.8851 4.4899C16.8083 4.68177 16.6932 4.85446 16.5397 5.00796L9.59379 11.9539C9.44029 12.1074 9.2676 12.2225 9.07573 12.2992C8.88385 12.376 8.69197 12.4144 8.5001 12.4144C8.30822 12.4144 8.11635 12.376 7.92447 12.2992C7.7326 12.2225 7.55991 12.1074 7.40641 11.9539Z" fill="white"/>
</svg>
