<svg width="19" height="19" viewBox="0 0 19 19" fill="none" xmlns="http://www.w3.org/2000/svg">
<path d="M17.9084 6.54937C17.0081 6.10687 16.0575 5.7845 15.0793 5.58981C14.3439 5.43877 13.5989 5.34416 12.8502 5.30674C12.5922 4.62553 12.2836 3.96624 11.9272 3.33485C11.4535 2.425 10.8721 1.58041 10.1965 0.820814C9.98514 0.61471 9.70624 0.5 9.4165 0.5C9.12676 0.5 8.84787 0.61471 8.63654 0.820814C7.96092 1.58741 7.37955 2.43834 6.90585 3.35405C6.56599 3.99345 6.26688 4.65537 6.0105 5.33553C5.30267 5.3754 4.59899 5.47327 3.90598 5.62819C2.92794 5.81751 1.97615 6.13172 1.07227 6.56376C0.822991 6.71417 0.637191 6.95651 0.551707 7.24265C0.466222 7.52879 0.487296 7.83791 0.610749 8.10865C1.09537 9.01121 1.68603 9.8476 2.36913 10.5987C2.85723 11.1399 3.37828 11.6479 3.92906 12.1196C3.7202 12.8811 3.57353 13.6594 3.49062 14.4465C3.36716 15.4709 3.36716 16.5072 3.49062 17.5315C3.54472 17.8285 3.70553 18.093 3.9404 18.2712C4.17527 18.4494 4.46658 18.528 4.75518 18.4911C5.72962 18.2934 6.6768 17.9711 7.57505 17.5315C8.21107 17.2166 8.82761 16.8609 9.42112 16.4664C10.0135 16.8629 10.6302 17.2187 11.2672 17.5315C12.1652 17.9717 13.1124 18.2941 14.0871 18.4911C14.3756 18.528 14.667 18.4494 14.9018 18.2712C15.1367 18.093 15.2975 17.8285 15.3516 17.5315C15.4751 16.5072 15.4751 15.4709 15.3516 14.4465C15.2755 13.6933 15.1428 12.9473 14.9547 12.2156C15.5584 11.7226 16.119 11.1751 16.63 10.5795C17.3126 9.82678 17.9045 8.99067 18.393 8.08946C18.5155 7.81675 18.5335 7.50585 18.4435 7.21986C18.3535 6.93386 18.1622 6.69412 17.9084 6.54937Z" fill="#FFE236" stroke="#231F20" stroke-miterlimit="10"/>
</svg>
