<svg width="28" height="28" viewBox="0 0 28 28" fill="none" xmlns="http://www.w3.org/2000/svg">
<path fill-rule="evenodd" clip-rule="evenodd" d="M14 0C21.7196 0 28 6.2804 28 14C28 21.7196 21.7196 28 14 28C6.2804 28 0 21.7196 0 14C0 6.2804 6.2804 0 14 0ZM22.736 21C21.6881 22.3104 20.3587 23.3682 18.8465 24.0952C17.3343 24.8222 15.6779 25.1997 14 25.1997C12.3221 25.1997 10.6657 24.8222 9.15348 24.0952C7.64126 23.3682 6.31195 22.3104 5.264 21C6.31195 19.6896 7.64126 18.6317 9.15348 17.9048C10.6657 17.1778 12.3221 16.8003 14 16.8003C15.6779 16.8003 17.3343 17.1778 18.8465 17.9048C20.3587 18.6317 21.6881 19.6896 22.736 21ZM14 14C14.5516 14 15.0977 13.8914 15.6073 13.6803C16.1168 13.4692 16.5798 13.1599 16.9698 12.7698C17.3599 12.3798 17.6692 11.9168 17.8803 11.4073C18.0914 10.8977 18.2 10.3516 18.2 9.8C18.2 9.24845 18.0914 8.7023 17.8803 8.19273C17.6692 7.68316 17.3599 7.22016 16.9698 6.83015C16.5798 6.44015 16.1168 6.13078 15.6073 5.91971C15.0977 5.70864 14.5516 5.6 14 5.6C12.8861 5.6 11.8178 6.0425 11.0302 6.83015C10.2425 7.6178 9.8 8.68609 9.8 9.8C9.8 10.9139 10.2425 11.9822 11.0302 12.7698C11.8178 13.5575 12.8861 14 14 14Z" fill="#5C5F62"/>
</svg>
