<svg width="17" height="13" viewBox="0 0 17 13" fill="none" xmlns="http://www.w3.org/2000/svg">
<path d="M7.4063 11.9537L0.460495 5.00789C0.306997 4.85439 0.191873 4.6817 0.115124 4.48983C0.0383746 4.29796 0 4.10608 0 3.91421C0 3.69675 0.0447704 3.48889 0.134311 3.29062C0.223852 3.09235 0.358163 2.91647 0.537244 2.76297C1.58615 1.85477 2.83332 1.16723 4.27877 0.700337C5.72421 0.233446 7.13128 0 8.49997 0C9.86867 0 11.2757 0.233446 12.7212 0.700337C14.1666 1.16723 15.4138 1.85477 16.4627 2.76297C16.6418 2.91647 16.7761 3.09235 16.8656 3.29062C16.9552 3.48889 16.9999 3.69675 16.9999 3.91421C16.9999 4.10608 16.9616 4.29796 16.8848 4.48983C16.8081 4.6817 16.693 4.85439 16.5395 5.00789L9.59365 11.9537C9.44015 12.1072 9.26747 12.2223 9.07559 12.2991C8.88372 12.3758 8.69185 12.4142 8.49997 12.4142C8.3081 12.4142 8.11623 12.3758 7.92435 12.2991C7.73248 12.2223 7.5598 12.1072 7.4063 11.9537Z" fill="white"/>
</svg>
