<svg width="13" height="24" viewBox="0 0 13 24" fill="none" xmlns="http://www.w3.org/2000/svg">
<path d="M2.19125 12.0051L12.4038 22.2054C12.5904 22.4004 12.6855 22.6445 12.6889 22.9375C12.6924 23.2305 12.599 23.4809 12.4089 23.6887C12.1973 23.8962 11.945 23.9999 11.652 23.9999C11.3591 23.9999 11.1091 23.8959 10.9018 23.6877L0.522999 13.2967C0.333736 13.1115 0.199253 12.907 0.119552 12.6831C0.0398506 12.4593 0 12.2343 0 12.0083C0 11.7823 0.0387764 11.5563 0.116329 11.3303C0.194097 11.1043 0.329654 10.8947 0.522999 10.7013L10.9214 0.302893C11.133 0.09451 11.381 -0.0063503 11.6652 0.00030937C11.9494 0.00696904 12.1956 0.114383 12.4038 0.322552C12.5904 0.53072 12.6871 0.777773 12.6938 1.06371C12.7004 1.34965 12.6038 1.5967 12.4038 1.80487L2.19125 12.0051Z" fill="white"/>
</svg>
