<svg width="6" height="12" viewBox="0 0 6 12" fill="none" xmlns="http://www.w3.org/2000/svg">
<path d="M0.6 12C0.43 12 0.2875 11.9425 0.1725 11.8275C0.0575 11.7125 0 11.57 0 11.4V1.8C0 1.63 0.0575 1.4875 0.1725 1.3725C0.2875 1.2575 0.43 1.2 0.6 1.2H1.8V0.6C1.8 0.43 1.8575 0.2875 1.9725 0.1725C2.0875 0.0575 2.23 0 2.4 0H3.6C3.77 0 3.9125 0.0575 4.0275 0.1725C4.1425 0.2875 4.2 0.43 4.2 0.6V1.2H5.4C5.57 1.2 5.7125 1.2575 5.8275 1.3725C5.9425 1.4875 6 1.63 6 1.8V11.4C6 11.57 5.9425 11.7125 5.8275 11.8275C5.7125 11.9425 5.57 12 5.4 12H0.6ZM1.2 4.8H4.8V2.4H1.2V4.8Z" fill="white"/>
</svg>
