<svg width="12" height="19" viewBox="0 0 12 19" fill="none" xmlns="http://www.w3.org/2000/svg">
<path d="M11.6537 13.1443C11.6537 14.7683 11.0887 16.1502 9.9585 17.29C8.8285 18.43 7.45292 19 5.83175 19C4.21058 19 2.83333 18.43 1.7 17.29C0.566666 16.1502 0 14.7683 0 13.1443V4.15375C0 2.99992 0.400667 2.01917 1.202 1.2115C2.00317 0.403834 2.98067 0 4.1345 0C5.28833 0 6.26592 0.403834 7.06725 1.2115C7.86858 2.01917 8.26925 2.99992 8.26925 4.15375V12.6635C8.26925 13.3403 8.0335 13.9182 7.562 14.397C7.09033 14.8758 6.51567 15.1152 5.838 15.1152C5.16017 15.1152 4.58183 14.8775 4.103 14.402C3.62417 13.9265 3.38475 13.347 3.38475 12.6635V4.63475C3.38475 4.42225 3.45658 4.24408 3.60025 4.10025C3.74408 3.95658 3.92233 3.88475 4.135 3.88475C4.3475 3.88475 4.52558 3.95658 4.66925 4.10025C4.81275 4.24408 4.8845 4.42225 4.8845 4.63475V12.6635C4.8845 12.9315 4.97458 13.1572 5.15475 13.3405C5.33492 13.5238 5.559 13.6155 5.827 13.6155C6.09483 13.6155 6.31883 13.5238 6.499 13.3405C6.67917 13.1572 6.76925 12.9315 6.76925 12.6635V4.14425C6.75892 3.40575 6.50242 2.78042 5.99975 2.26825C5.49708 1.75608 4.87533 1.5 4.1345 1.5C3.39683 1.5 2.77333 1.75767 2.264 2.273C1.75467 2.7885 1.5 3.41542 1.5 4.15375V13.1443C1.48967 14.3533 1.90758 15.3814 2.75375 16.2288C3.59992 17.0763 4.62708 17.5 5.83525 17.5C7.02625 17.5 8.03867 17.0763 8.8725 16.2288C9.70617 15.3814 10.1332 14.3533 10.1537 13.1443V4.63475C10.1537 4.42225 10.2257 4.24408 10.3695 4.10025C10.5133 3.95658 10.6916 3.88475 10.9043 3.88475C11.1167 3.88475 11.2948 3.95658 11.4385 4.10025C11.582 4.24408 11.6537 4.42225 11.6537 4.63475V13.1443Z" fill="#5F6368"/>
</svg>
