<svg width="17" height="20" viewBox="0 0 17 20" fill="none" xmlns="http://www.w3.org/2000/svg">
<path d="M11.1923 15.6152C10.5499 15.6152 10.0048 15.3912 9.55675 14.9432C9.10875 14.4951 8.88475 13.9498 8.88475 13.3075C8.88475 12.6652 9.10875 12.12 9.55675 11.672C10.0048 11.224 10.5499 11 11.1923 11C11.8346 11 12.3798 11.224 12.828 11.672C13.276 12.12 13.5 12.6652 13.5 13.3075C13.5 13.9498 13.276 14.4951 12.828 14.9432C12.3798 15.3912 11.8346 15.6152 11.1923 15.6152ZM1.80775 19.1152C1.30258 19.1152 0.875 18.9403 0.525 18.5903C0.175 18.2402 0 17.8127 0 17.3075V3.923C0 3.41783 0.175 2.99025 0.525 2.64025C0.875 2.29025 1.30258 2.11525 1.80775 2.11525H3.19225V0.769C3.19225 0.549834 3.26567 0.366833 3.4125 0.22C3.55933 0.073333 3.74233 0 3.9615 0C4.18083 0 4.36383 0.073333 4.5105 0.22C4.65733 0.366833 4.73075 0.549834 4.73075 0.769V2.11525H12.3077V0.75C12.3077 0.537167 12.3795 0.358916 12.523 0.21525C12.6667 0.0717496 12.8449 0 13.0577 0C13.2706 0 13.4488 0.0717496 13.5922 0.21525C13.7359 0.358916 13.8077 0.537167 13.8077 0.75V2.11525H15.1923C15.6974 2.11525 16.125 2.29025 16.475 2.64025C16.825 2.99025 17 3.41783 17 3.923V17.3075C17 17.8127 16.825 18.2402 16.475 18.5903C16.125 18.9403 15.6974 19.1152 15.1923 19.1152H1.80775ZM1.80775 17.6152H15.1923C15.2692 17.6152 15.3398 17.5832 15.4038 17.519C15.4679 17.455 15.5 17.3845 15.5 17.3075V7.923H1.5V17.3075C1.5 17.3845 1.53208 17.455 1.59625 17.519C1.66025 17.5832 1.73075 17.6152 1.80775 17.6152ZM1.5 6.423H15.5V3.923C15.5 3.846 15.4679 3.7755 15.4038 3.7115C15.3398 3.64733 15.2692 3.61525 15.1923 3.61525H1.80775C1.73075 3.61525 1.66025 3.64733 1.59625 3.7115C1.53208 3.7755 1.5 3.846 1.5 3.923V6.423Z" fill="#38A389"/>
</svg>
