<svg width="19" height="19" viewBox="0 0 19 19" fill="none" xmlns="http://www.w3.org/2000/svg">
<path d="M8.75 10.25V13.5C8.75 13.7125 8.82192 13.8906 8.96575 14.0343C9.10958 14.1781 9.28775 14.25 9.50025 14.25C9.71292 14.25 9.891 14.1781 10.0345 14.0343C10.1782 13.8906 10.25 13.7125 10.25 13.5V10.25H13.5C13.7125 10.25 13.8906 10.1781 14.0343 10.0343C14.1781 9.89042 14.25 9.71225 14.25 9.49975C14.25 9.28708 14.1781 9.109 14.0343 8.9655C13.8906 8.82183 13.7125 8.75 13.5 8.75H10.25V5.5C10.25 5.2875 10.1781 5.10942 10.0343 4.96575C9.89042 4.82192 9.71225 4.75 9.49975 4.75C9.28708 4.75 9.109 4.82192 8.9655 4.96575C8.82183 5.10942 8.75 5.2875 8.75 5.5V8.75H5.5C5.2875 8.75 5.10942 8.82192 4.96575 8.96575C4.82192 9.10958 4.75 9.28775 4.75 9.50025C4.75 9.71292 4.82192 9.891 4.96575 10.0345C5.10942 10.1782 5.2875 10.25 5.5 10.25H8.75ZM9.50175 19C8.18775 19 6.95267 18.7507 5.7965 18.252C4.64033 17.7533 3.63467 17.0766 2.7795 16.2218C1.92433 15.3669 1.24725 14.3617 0.74825 13.206C0.249417 12.0503 0 10.8156 0 9.50175C0 8.18775 0.249333 6.95267 0.748 5.7965C1.24667 4.64033 1.92342 3.63467 2.77825 2.7795C3.63308 1.92433 4.63833 1.24725 5.794 0.74825C6.94967 0.249417 8.18442 0 9.49825 0C10.8123 0 12.0473 0.249333 13.2035 0.748C14.3597 1.24667 15.3653 1.92342 16.2205 2.77825C17.0757 3.63308 17.7528 4.63833 18.2518 5.794C18.7506 6.94967 19 8.18442 19 9.49825C19 10.8123 18.7507 12.0473 18.252 13.2035C17.7533 14.3597 17.0766 15.3653 16.2218 16.2205C15.3669 17.0757 14.3617 17.7528 13.206 18.2518C12.0503 18.7506 10.8156 19 9.50175 19ZM9.5 17.5C11.7333 17.5 13.625 16.725 15.175 15.175C16.725 13.625 17.5 11.7333 17.5 9.5C17.5 7.26667 16.725 5.375 15.175 3.825C13.625 2.275 11.7333 1.5 9.5 1.5C7.26667 1.5 5.375 2.275 3.825 3.825C2.275 5.375 1.5 7.26667 1.5 9.5C1.5 11.7333 2.275 13.625 3.825 15.175C5.375 16.725 7.26667 17.5 9.5 17.5Z" fill="white"/>
</svg>
