<svg width="23" height="6" viewBox="0 0 23 6" fill="none" xmlns="http://www.w3.org/2000/svg">
<path d="M2.87496 5.74992C2.08434 5.74992 1.40753 5.46841 0.844519 4.9054C0.281506 4.34239 0 3.66557 0 2.87496C0 2.08434 0.281506 1.40753 0.844519 0.844519C1.40753 0.281506 2.08434 0 2.87496 0C3.66557 0 4.34239 0.281506 4.9054 0.844519C5.46841 1.40753 5.74992 2.08434 5.74992 2.87496C5.74992 3.66557 5.46841 4.34239 4.9054 4.9054C4.34239 5.46841 3.66557 5.74992 2.87496 5.74992ZM11.4998 5.74992C10.7092 5.74992 10.0324 5.46841 9.4694 4.9054C8.90638 4.34239 8.62488 3.66557 8.62488 2.87496C8.62488 2.08434 8.90638 1.40753 9.4694 0.844519C10.0324 0.281506 10.7092 0 11.4998 0C12.2904 0 12.9673 0.281506 13.5303 0.844519C14.0933 1.40753 14.3748 2.08434 14.3748 2.87496C14.3748 3.66557 14.0933 4.34239 13.5303 4.9054C12.9673 5.46841 12.2904 5.74992 11.4998 5.74992ZM20.1247 5.74992C19.3341 5.74992 18.6573 5.46841 18.0943 4.9054C17.5313 4.34239 17.2498 3.66557 17.2498 2.87496C17.2498 2.08434 17.5313 1.40753 18.0943 0.844519C18.6573 0.281506 19.3341 0 20.1247 0C20.9153 0 21.5921 0.281506 22.1552 0.844519C22.7182 1.40753 22.9997 2.08434 22.9997 2.87496C22.9997 3.66557 22.7182 4.34239 22.1552 4.9054C21.5921 5.46841 20.9153 5.74992 20.1247 5.74992Z" fill="white"/>
</svg>
