<svg width="17" height="17" viewBox="0 0 17 17" fill="none" xmlns="http://www.w3.org/2000/svg">
<path d="M7.61128 9.10979L6.23722 7.74082C6.11997 7.62289 5.97477 7.56258 5.80164 7.55988C5.62851 7.55719 5.47626 7.62183 5.34489 7.75381C5.22227 7.87727 5.16096 8.02685 5.16096 8.20254C5.16096 8.37823 5.22227 8.5278 5.34489 8.65127L7.07558 10.3919C7.22868 10.5457 7.40724 10.6227 7.61128 10.6227C7.81531 10.6227 7.99388 10.5457 8.14697 10.3919L11.6556 6.86316C11.7814 6.73643 11.8435 6.5882 11.8418 6.41847C11.8403 6.24874 11.7782 6.09782 11.6556 5.9657C11.5242 5.83372 11.3733 5.76553 11.2028 5.76113C11.0325 5.75673 10.8817 5.82059 10.7503 5.95271L7.61128 9.10979ZM5.46066 16.0215L4.29001 14.0418L2.07569 13.5635C1.88576 13.5264 1.73408 13.426 1.62063 13.2622C1.50719 13.0985 1.46189 12.9211 1.48475 12.7301L1.70127 10.4394L0.195356 8.70683C0.0651188 8.56718 0 8.39909 0 8.20254C0 8.00599 0.0651188 7.83789 0.195356 7.69825L1.70127 5.9657L1.48475 3.675C1.46189 3.48399 1.50719 3.3066 1.62063 3.14283C1.73408 2.97906 1.88576 2.87866 2.07569 2.84162L4.29001 2.3633L5.46066 0.383607C5.56268 0.215582 5.7016 0.100986 5.87741 0.0398217C6.05322 -0.0213429 6.23179 -0.0120477 6.41311 0.0677076L8.50022 0.955163L10.5873 0.0677076C10.7687 -0.0120477 10.9472 -0.0213429 11.123 0.0398217C11.2988 0.100986 11.4378 0.215582 11.5398 0.383607L12.7104 2.3633L14.9248 2.84162C15.1147 2.87866 15.2664 2.97906 15.3798 3.14283C15.4933 3.3066 15.5386 3.48399 15.5157 3.675L15.2992 5.9657L16.8051 7.69825C16.9353 7.83789 17.0004 8.00599 17.0004 8.20254C17.0004 8.39909 16.9353 8.56718 16.8051 8.70683L15.2992 10.4394L15.5157 12.7301C15.5386 12.9211 15.4933 13.0985 15.3798 13.2622C15.2664 13.426 15.1147 13.5264 14.9248 13.5635L12.7104 14.0418L11.5398 16.0215C11.4378 16.1895 11.2988 16.3041 11.123 16.3653C10.9472 16.4264 10.7687 16.4171 10.5873 16.3374L8.50022 15.4499L6.41311 16.3374C6.23179 16.4171 6.05322 16.4264 5.87741 16.3653C5.7016 16.3041 5.56268 16.1895 5.46066 16.0215Z" fill="#0F6CE0"/>
</svg>
