<svg width="43" height="43" viewBox="0 0 43 43" fill="none" xmlns="http://www.w3.org/2000/svg">
<path d="M21.5 0C9.6535 0 0 9.6535 0 21.5C0 33.3465 9.6535 43 21.5 43C33.3465 43 43 33.3465 43 21.5C43 9.6535 33.3465 0 21.5 0ZM27.4985 22.6395L19.909 30.229C19.5865 30.5515 19.178 30.702 18.7695 30.702C18.361 30.702 17.9525 30.5515 17.63 30.229C17.0065 29.6055 17.0065 28.5735 17.63 27.95L24.08 21.5L17.63 15.05C17.0065 14.4265 17.0065 13.3945 17.63 12.771C18.2535 12.1475 19.2855 12.1475 19.909 12.771L27.4985 20.3605C28.1435 20.984 28.1435 22.016 27.4985 22.6395Z" fill="white"/>
</svg>
