<svg width="10" height="10" viewBox="0 0 10 10" fill="none" xmlns="http://www.w3.org/2000/svg">
<path d="M3.93198 2.04596e-06C3.84553 -0.000208919 3.75988 0.0158971 3.67994 0.0473982C3.6 0.0788994 3.52734 0.125177 3.46613 0.183579C3.40492 0.241981 3.35635 0.31136 3.32321 0.387743C3.29008 0.464126 3.27302 0.546012 3.27302 0.628711V3.13072H0.657287C0.482963 3.13072 0.31578 3.19696 0.192514 3.31486C0.0692491 3.43277 0 3.59268 0 3.75943V5.80594C0 6.15237 0.293431 6.43465 0.657287 6.43465H3.27302V8.93666C3.27302 9.28469 3.56813 9.56536 3.93031 9.56536H6.06984C6.15616 9.56536 6.24163 9.5491 6.32138 9.51751C6.40112 9.48591 6.47358 9.4396 6.53462 9.38122C6.59565 9.32284 6.64407 9.25353 6.6771 9.17725C6.71013 9.10097 6.72713 9.01922 6.72713 8.93666V6.43465H9.34286C9.51719 6.43465 9.68437 6.36841 9.80764 6.2505C9.9309 6.1326 10.0002 5.97268 10.0002 5.80594V3.75943C10.0002 3.59268 9.9309 3.43277 9.80764 3.31486C9.68437 3.19696 9.51719 3.13072 9.34286 3.13072H6.72713V0.628711C6.72713 0.546148 6.71013 0.464393 6.6771 0.388115C6.64407 0.311836 6.59565 0.242527 6.53462 0.184146C6.47358 0.125765 6.40112 0.079455 6.32138 0.0478594C6.24163 0.0162638 6.15616 2.04596e-06 6.06984 2.04596e-06H3.93198Z" fill="#919191"/>
</svg>
