<svg width="12" height="16" viewBox="0 0 12 16" fill="none" xmlns="http://www.w3.org/2000/svg">
<path d="M0.599994 13.1075C0.429995 13.1075 0.28753 13.05 0.172598 12.9351C0.0575328 12.82 0 12.6774 0 12.5073C0 12.3373 0.0575328 12.1948 0.172598 12.0799C0.28753 11.9651 0.429995 11.9077 0.599994 11.9077H1.44618V5.93833C1.44618 4.86248 1.77825 3.91122 2.44237 3.08457C3.10637 2.25791 3.95889 1.72918 4.99995 1.49838V0.999989C4.99995 0.722259 5.09708 0.486128 5.29134 0.291597C5.48561 0.0971993 5.72147 0 5.99894 0C6.27653 0 6.51273 0.0971993 6.70753 0.291597C6.90246 0.486128 6.99992 0.722259 6.99992 0.999989V1.49838C8.04098 1.72918 8.8935 2.25791 9.5575 3.08457C10.2216 3.91122 10.5537 4.86248 10.5537 5.93833V11.9077H11.3999C11.5699 11.9077 11.7123 11.9651 11.8273 12.0801C11.9423 12.1951 11.9999 12.3377 11.9999 12.5079C11.9999 12.6779 11.9423 12.8203 11.8273 12.9353C11.7123 13.0501 11.5699 13.1075 11.3999 13.1075H0.599994ZM5.99854 15.3536C5.60054 15.3536 5.26028 15.212 4.97775 14.9288C4.69508 14.6456 4.55375 14.3052 4.55375 13.9074H7.44612C7.44612 14.3065 7.30439 14.6473 7.02092 14.9298C6.73746 15.2124 6.39666 15.3536 5.99854 15.3536ZM2.64617 11.9077H9.3537V5.93833C9.3537 5.01221 9.0263 4.22175 8.37151 3.56696C7.71658 2.91203 6.92606 2.58457 5.99994 2.58457C5.07381 2.58457 4.28329 2.91203 3.62836 3.56696C2.97357 4.22175 2.64617 5.01221 2.64617 5.93833V11.9077Z" fill="black"/>
</svg>
