<svg width="15" height="15" viewBox="0 0 15 15" fill="none" xmlns="http://www.w3.org/2000/svg">
<path d="M5.43337 10.8667C3.91612 10.8667 2.6312 10.3405 1.57863 9.28811C0.526211 8.23554 0 6.95063 0 5.43337C0 3.91612 0.526211 2.63121 1.57863 1.57863C2.6312 0.526212 3.91612 0 5.43337 0C6.95063 0 8.23554 0.526212 9.28811 1.57863C10.3405 2.63121 10.8667 3.91612 10.8667 5.43337C10.8667 6.06791 10.7603 6.67393 10.5473 7.25146C10.3342 7.82898 10.05 8.33127 9.6946 8.75834L14.807 13.8707C14.9301 13.9937 14.993 14.1483 14.9958 14.3345C14.9986 14.5208 14.9357 14.6783 14.807 14.807C14.6783 14.9357 14.5222 15 14.3388 15C14.1554 15 13.9994 14.9357 13.8707 14.807L8.75834 9.6946C8.3141 10.0614 7.80321 10.3485 7.22569 10.5558C6.64817 10.7631 6.05073 10.8667 5.43337 10.8667ZM5.43337 9.53422C6.5782 9.53422 7.54784 9.13692 8.34231 8.34231C9.13692 7.54784 9.53422 6.5782 9.53422 5.43337C9.53422 4.28854 9.13692 3.3189 8.34231 2.52444C7.54784 1.72983 6.5782 1.33252 5.43337 1.33252C4.28854 1.33252 3.3189 1.72983 2.52444 2.52444C1.72983 3.3189 1.33252 4.28854 1.33252 5.43337C1.33252 6.5782 1.72983 7.54784 2.52444 8.34231C3.3189 9.13692 4.28854 9.53422 5.43337 9.53422Z" fill="black"/>
</svg>
