<svg width="14" height="14" viewBox="0 0 14 14" fill="none" xmlns="http://www.w3.org/2000/svg">
<path d="M6.09259 10.3056L11.0185 5.37963L9.81944 4.18056L6.09259 7.90741L4.21296 6.02778L3.01389 7.22685L6.09259 10.3056ZM7 14C6.03167 14 5.12167 13.8163 4.27 13.4487C3.41833 13.0812 2.6775 12.5825 2.0475 11.9525C1.4175 11.3225 0.91875 10.5817 0.55125 9.73C0.18375 8.87833 0 7.96833 0 7C0 6.02886 0.184074 5.11627 0.552222 4.26222C0.92037 3.40807 1.41998 2.66513 2.05106 2.0334C2.68215 1.40157 3.42298 0.904707 4.27356 0.542824C5.12415 0.180941 6.03296 0 7 0C7.97103 0 8.88352 0.180941 9.73745 0.542824C10.5915 0.904707 11.3345 1.40162 11.9664 2.03356C12.5984 2.66551 13.0953 3.40861 13.4572 4.26287C13.8191 5.11724 14 6.03005 14 7.0013C14 7.97265 13.8191 8.88233 13.4572 9.73032C13.0953 10.5783 12.5984 11.3179 11.9666 11.9489C11.3349 12.58 10.5919 13.0796 9.73778 13.4478C8.88373 13.8159 7.97114 14 7 14Z" fill="#12E94C"/>
</svg>
