<svg width="9" height="9" viewBox="0 0 9 9" fill="none" xmlns="http://www.w3.org/2000/svg">
<path d="M0.951038 8.8164V4.06121C0.680417 4.06121 0.454256 3.96583 0.272554 3.77508C0.0908512 3.58426 0 3.35489 0 3.08697V0.419427C0 0.306771 0.0397812 0.212866 0.119344 0.137711C0.198829 0.0626331 0.298224 0.0250939 0.417529 0.0250939C0.536834 0.0250939 0.636229 0.0626331 0.715714 0.137711C0.795277 0.212866 0.835058 0.306771 0.835058 0.419427V1.92717H1.1598V0.419427C1.1598 0.306771 1.19958 0.212866 1.27915 0.137711C1.35863 0.0626331 1.45803 0.0250939 1.57733 0.0250939C1.69664 0.0250939 1.79603 0.0626331 1.87552 0.137711C1.95508 0.212866 1.99486 0.306771 1.99486 0.419427V1.92717H2.3196V0.419427C2.3196 0.306771 2.35939 0.212866 2.43895 0.137711C2.51843 0.0626331 2.61783 0.0250939 2.73713 0.0250939C2.85644 0.0250939 2.95583 0.0626331 3.03532 0.137711C3.11488 0.212866 3.15466 0.306771 3.15466 0.419427V3.08697C3.15466 3.35489 3.05929 3.58426 2.86854 3.77508C2.67771 3.96583 2.44834 4.06121 2.18043 4.06121V8.8164H0.951038ZM4.38405 8.8164V3.99162C4.03611 3.82925 3.79062 3.57254 3.64758 3.22151C3.50454 2.87048 3.43302 2.50089 3.43302 2.11274C3.43302 1.57807 3.57026 1.09648 3.84474 0.667972C4.11923 0.239387 4.50003 0.0250939 4.98715 0.0250939C5.47427 0.0250939 5.85893 0.235791 6.14115 0.657186C6.42337 1.07858 6.56448 1.56377 6.56448 2.11274C6.56448 2.50089 6.49103 2.87048 6.34412 3.22151C6.19721 3.57254 5.95365 3.82774 5.61344 3.98709V8.8164H4.38405ZM6.77325 8.8164V0.00189786C7.37634 -0.0212982 7.89825 0.168136 8.33898 0.570201C8.7797 0.972266 9.00007 1.47098 9.00007 2.06635V5.03544H8.00264V8.8164H6.77325Z" fill="#38A389"/>
</svg>
