<svg width="12" height="12" viewBox="0 0 12 12" fill="none" xmlns="http://www.w3.org/2000/svg">
<path d="M6.47366 5.80814V3.31578C6.47366 3.18157 6.42824 3.06904 6.3374 2.9782C6.24656 2.88746 6.13403 2.84209 5.99982 2.84209C5.8655 2.84209 5.75303 2.88746 5.6624 2.9782C5.57166 3.06904 5.5263 3.18157 5.5263 3.31578V5.95387C5.5263 6.02819 5.54008 6.10019 5.56766 6.16987C5.59514 6.23956 5.63845 6.30398 5.69761 6.36313L7.86076 8.52628C7.94813 8.61376 8.05802 8.65849 8.19044 8.66049C8.32286 8.66249 8.43481 8.61776 8.52628 8.52628C8.61776 8.43481 8.66349 8.32386 8.66349 8.19344C8.66349 8.06313 8.61776 7.95223 8.52628 7.86076L6.47366 5.80814ZM6.00108 12C5.17119 12 4.39114 11.8425 3.66093 11.5275C2.93073 11.2126 2.29557 10.7852 1.75547 10.2453C1.21536 9.70538 0.787734 9.07049 0.472577 8.3406C0.157526 7.61071 0 6.83087 0 6.00108C0 5.17119 0.157473 4.39114 0.472419 3.66093C0.787365 2.93073 1.21479 2.29557 1.75468 1.75547C2.29457 1.21536 2.92946 0.787734 3.65935 0.472577C4.38925 0.157526 5.16909 0 5.99887 0C6.82876 0 7.60881 0.157473 8.33902 0.472419C9.06923 0.787365 9.70439 1.21479 10.2445 1.75468C10.7846 2.29457 11.2122 2.92946 11.5274 3.65935C11.8424 4.38925 12 5.16909 12 5.99887C12 6.82876 11.8425 7.60881 11.5275 8.33902C11.2126 9.06923 10.7852 9.70439 10.2453 10.2445C9.70538 10.7846 9.07049 11.2122 8.3406 11.5274C7.61071 11.8424 6.83087 12 6.00108 12ZM5.99998 11.0526C7.39997 11.0526 8.59207 10.5605 9.57628 9.57628C10.5605 8.59207 11.0526 7.39997 11.0526 5.99998C11.0526 4.59998 10.5605 3.40788 9.57628 2.42368C8.59207 1.43947 7.39997 0.947365 5.99998 0.947365C4.59998 0.947365 3.40788 1.43947 2.42368 2.42368C1.43947 3.40788 0.947365 4.59998 0.947365 5.99998C0.947365 7.39997 1.43947 8.59207 2.42368 9.57628C3.40788 10.5605 4.59998 11.0526 5.99998 11.0526Z" fill="#5F6368"/>
</svg>
