<svg width="12" height="12" viewBox="0 0 12 12" fill="none" xmlns="http://www.w3.org/2000/svg">
<path d="M0.66129 12C0.467742 12 0.30914 11.9355 0.185484 11.8065C0.061828 11.6774 0 11.5269 0 11.3548C0 11.2688 0.016129 11.1882 0.0483871 11.1129C0.0806452 11.0376 0.129032 10.9677 0.193548 10.9032L10.9032 0.193548C10.9677 0.129032 11.0376 0.0806452 11.1129 0.0483871C11.1882 0.016129 11.2688 0 11.3548 0C11.5269 0 11.6774 0.061828 11.8065 0.185484C11.9355 0.30914 12 0.467742 12 0.66129V11.0323C12 11.3011 11.9059 11.5296 11.7177 11.7177C11.5296 11.9059 11.3011 12 11.0323 12H0.66129ZM7.48387 10.7097H10.7097V2.22581L7.48387 5.45161V10.7097Z" fill="black"/>
</svg>
