<svg width="17" height="13" viewBox="0 0 17 13" fill="none" xmlns="http://www.w3.org/2000/svg">
<path d="M7.40632 11.9537L0.460497 5.0079C0.306998 4.8544 0.191874 4.68172 0.115124 4.48984C0.0383747 4.29797 0 4.1061 0 3.91422C0 3.69677 0.0447705 3.4889 0.134312 3.29063C0.223853 3.09236 0.358164 2.91648 0.537246 2.76298C1.58616 1.85478 2.83333 1.16723 4.27878 0.700339C5.72423 0.233446 7.1313 0 8.5 0C9.8687 0 11.2758 0.233446 12.7212 0.700339C14.1667 1.16723 15.4138 1.85478 16.4628 2.76298C16.6418 2.91648 16.7761 3.09236 16.8657 3.29063C16.9552 3.4889 17 3.69677 17 3.91422C17 4.1061 16.9616 4.29797 16.8849 4.48984C16.8081 4.68172 16.693 4.8544 16.5395 5.0079L9.59368 11.9537C9.44018 12.1072 9.2675 12.2224 9.07562 12.2991C8.88375 12.3759 8.69187 12.4142 8.5 12.4142C8.30813 12.4142 8.11625 12.3759 7.92438 12.2991C7.73251 12.2224 7.55982 12.1072 7.40632 11.9537Z" fill="black"/>
</svg>
