<svg width="6" height="23" viewBox="0 0 6 23" fill="none" xmlns="http://www.w3.org/2000/svg">
<path d="M0.000330344 2.875C0.000330379 2.08438 0.281841 1.40755 0.844863 0.844533C1.40788 0.281511 2.08471 -1.6023e-07 2.87534 -1.2567e-07C3.66596 -9.11111e-08 4.34279 0.281511 4.90581 0.844533C5.46883 1.40755 5.75034 2.08438 5.75034 2.87501C5.75034 3.66563 5.46883 4.34246 4.90581 4.90548C4.34279 5.4685 3.66596 5.75001 2.87534 5.75001C2.08471 5.75001 1.40788 5.4685 0.844863 4.90548C0.281841 4.34246 0.00033031 3.66563 0.000330344 2.875ZM0.000329967 11.5C0.000330002 10.7094 0.281841 10.0326 0.844863 9.46955C1.40788 8.90653 2.08471 8.62502 2.87534 8.62502C3.66596 8.62502 4.34279 8.90653 4.90581 9.46955C5.46883 10.0326 5.75034 10.7094 5.75034 11.5C5.75034 12.2906 5.46883 12.9675 4.90581 13.5305C4.34279 14.0935 3.66596 14.375 2.87533 14.375C2.08471 14.375 1.40788 14.0935 0.844863 13.5305C0.281841 12.9675 0.000329933 12.2906 0.000329967 11.5ZM0.00032959 20.125C0.000329625 19.3344 0.281841 18.6576 0.844862 18.0946C1.40788 17.5315 2.08471 17.25 2.87533 17.25C3.66596 17.25 4.34279 17.5315 4.90581 18.0946C5.46883 18.6576 5.75034 19.3344 5.75034 20.125C5.75034 20.9157 5.46883 21.5925 4.90581 22.1555C4.34279 22.7185 3.66596 23 2.87533 23C2.08471 23 1.40788 22.7185 0.844862 22.1555C0.28184 21.5925 0.000329556 20.9157 0.00032959 20.125Z" fill="white"/>
</svg>
