<svg width="21" height="21" viewBox="0 0 21 21" fill="none" xmlns="http://www.w3.org/2000/svg">
<path d="M14.2645 9.18223C14.6668 9.18223 15.0079 9.0414 15.2877 8.75975C15.5675 8.47827 15.7074 8.13647 15.7074 7.73434C15.7074 7.33221 15.5667 6.99124 15.2852 6.71142C15.0037 6.43142 14.6618 6.29142 14.2595 6.29142C13.8574 6.29142 13.5164 6.43225 13.2366 6.71391C12.9568 6.99538 12.8169 7.33718 12.8169 7.73931C12.8169 8.14145 12.9576 8.48242 13.2391 8.76223C13.5206 9.04223 13.8624 9.18223 14.2645 9.18223ZM6.74043 9.18223C7.14256 9.18223 7.48354 9.0414 7.76335 8.75975C8.04317 8.47827 8.18308 8.13647 8.18308 7.73434C8.18308 7.33221 8.04234 6.99124 7.76087 6.71142C7.47939 6.43142 7.13759 6.29142 6.73546 6.29142C6.33315 6.29142 5.99208 6.43225 5.71227 6.71391C5.43245 6.99538 5.29254 7.33718 5.29254 7.73931C5.29254 8.14145 5.43328 8.48242 5.71475 8.76223C5.99623 9.04223 6.33812 9.18223 6.74043 9.18223ZM10.5019 21C9.0496 21 7.68451 20.7244 6.40665 20.1732C5.12878 19.6221 4.01725 18.8741 3.07207 17.9293C2.12689 16.9845 1.37854 15.8734 0.827011 14.5961C0.27567 13.3188 0 11.954 0 10.5019C0 9.0496 0.275578 7.68451 0.826735 6.40665C1.37789 5.12878 2.12588 4.01725 3.07069 3.07207C4.01551 2.12689 5.12657 1.37854 6.40388 0.827011C7.6812 0.27567 9.04592 0 10.498 0C11.9504 0 13.3154 0.275578 14.5933 0.826735C15.8712 1.37789 16.9827 2.12588 17.9279 3.07069C18.8731 4.01551 19.6214 5.12657 20.1729 6.40388C20.7243 7.6812 21 9.04592 21 10.498C21 11.9504 20.7244 13.3154 20.1732 14.5933C19.6221 15.8712 18.8741 16.9827 17.9293 17.9279C16.9845 18.8731 15.8734 19.6214 14.5961 20.1729C13.3188 20.7243 11.954 21 10.5019 21ZM10.5 19.3421C12.9684 19.3421 15.0592 18.4855 16.7723 16.7723C18.4855 15.0592 19.3421 12.9684 19.3421 10.5C19.3421 8.03156 18.4855 5.94078 16.7723 4.22762C15.0592 2.51447 12.9684 1.65789 10.5 1.65789C8.03156 1.65789 5.94078 2.51447 4.22762 4.22762C2.51447 5.94078 1.65789 8.03156 1.65789 10.5C1.65789 12.9684 2.51447 15.0592 4.22762 16.7723C5.94078 18.4855 8.03156 19.3421 10.5 19.3421ZM10.5 16.2388C11.492 16.2388 12.407 16.0039 13.2452 15.5342C14.0833 15.0644 14.7639 14.4272 15.2869 13.6223C15.3915 13.4212 15.3882 13.2189 15.2769 13.0156C15.1658 12.8122 14.9919 12.7105 14.7552 12.7105H6.24472C6.00801 12.7105 5.83412 12.8122 5.72304 13.0156C5.61178 13.2189 5.60846 13.4212 5.71309 13.6223C6.23607 14.4272 6.92096 15.0644 7.76777 15.5342C8.6144 16.0039 9.52514 16.2388 10.5 16.2388Z" fill="#5F6368"/>
</svg>
