<svg width="20" height="26" viewBox="0 0 20 26" fill="none" xmlns="http://www.w3.org/2000/svg">
<path d="M0.999989 21.8458C0.716659 21.8458 0.479217 21.75 0.287664 21.5584C0.095888 21.3667 0 21.129 0 20.8454C0 20.5621 0.095888 20.3247 0.287664 20.1331C0.479217 19.9418 0.716659 19.8461 0.999989 19.8461H2.41031V9.89723C2.41031 8.10413 2.96375 6.51871 4.07062 5.14094C5.17728 3.76318 6.59815 2.88197 8.33324 2.49731V1.66665C8.33324 1.20376 8.49513 0.810214 8.8189 0.485995C9.14268 0.161999 9.53579 0 9.99822 0C10.4609 0 10.8545 0.161999 11.1792 0.485995C11.5041 0.810214 11.6665 1.20376 11.6665 1.66665V2.49731C13.4016 2.88197 14.8225 3.76318 15.9292 5.14094C17.036 6.51871 17.5895 8.10413 17.5895 9.89723V19.8461H18.9998C19.2831 19.8461 19.5206 19.9419 19.7121 20.1335C19.9039 20.3252 19.9998 20.5629 19.9998 20.8464C19.9998 21.1298 19.9039 21.3672 19.7121 21.5588C19.5206 21.7501 19.2831 21.8458 18.9998 21.8458H0.999989ZM9.99756 25.5894C9.33423 25.5894 8.76713 25.3534 8.29624 24.8814C7.82514 24.4094 7.58958 23.842 7.58958 23.1791H12.4102C12.4102 23.8442 12.174 24.4122 11.7015 24.8831C11.2291 25.3539 10.6611 25.5894 9.99756 25.5894ZM4.41029 19.8461H15.5895V9.89723C15.5895 8.35369 15.0438 7.03626 13.9525 5.94494C12.861 4.85339 11.5434 4.30762 9.99989 4.30762C8.45635 4.30762 7.13881 4.85339 6.04727 5.94494C4.95595 7.03626 4.41029 8.35369 4.41029 9.89723V19.8461Z" fill="white"/>
</svg>
