<svg width="22" height="22" viewBox="0 0 22 22" fill="none" xmlns="http://www.w3.org/2000/svg">
<path d="M7.96892 15.9378C5.74362 15.9378 3.85909 15.1661 2.31532 13.6225C0.771774 12.0788 0 10.1942 0 7.96892C0 5.74362 0.771774 3.85909 2.31532 2.31532C3.85909 0.771775 5.74362 0 7.96892 0C10.1942 0 12.0788 0.771775 13.6225 2.31532C15.1661 3.85909 15.9378 5.74362 15.9378 7.96892C15.9378 8.89957 15.7817 9.78841 15.4694 10.6354C15.1568 11.4825 14.7399 12.2192 14.2187 12.8455L21.7169 20.3437C21.8974 20.524 21.9897 20.7507 21.9938 21.0239C21.9979 21.2972 21.9056 21.5281 21.7169 21.7169C21.5281 21.9056 21.2992 22 21.0301 22C20.7612 22 20.5324 21.9056 20.3437 21.7169L12.8455 14.2187C12.194 14.7567 11.4447 15.1777 10.5976 15.4818C9.75062 15.7858 8.87438 15.9378 7.96892 15.9378ZM7.96892 13.9835C9.648 13.9835 11.0701 13.4008 12.2353 12.2353C13.4008 11.0701 13.9835 9.648 13.9835 7.96892C13.9835 6.28985 13.4008 4.86771 12.2353 3.7025C11.0701 2.53707 9.648 1.95436 7.96892 1.95436C6.28985 1.95436 4.86771 2.53707 3.7025 3.7025C2.53707 4.86771 1.95436 6.28985 1.95436 7.96892C1.95436 9.648 2.53707 11.0701 3.7025 12.2353C4.86771 13.4008 6.28985 13.9835 7.96892 13.9835Z" fill="white"/>
</svg>
